<svg width="128" height="64" viewBox="0 0 128 64" fill="none" xmlns="http://www.w3.org/2000/svg">
<path d="M81 3C77.1917 3 73.4206 3.75011 69.9022 5.20749C66.3837 6.66488 63.1868 8.801 60.4939 11.4939C57.801 14.1868 55.6649 17.3837 54.2075 20.9022C52.7501 24.4206 52 28.1917 52 32C52 35.8083 52.7501 39.5794 54.2075 43.0978C55.6649 46.6163 57.801 49.8132 60.4939 52.5061C63.1868 55.199 66.3837 57.3351 69.9022 58.7925C73.4206 60.2499 77.1917 61 81 61C84.8083 61 88.5794 60.2499 92.0978 58.7925C95.6163 57.3351 98.8132 55.199 101.506 52.5061C104.199 49.8132 106.335 46.6163 107.793 43.0978C109.25 39.5794 110 35.8083 110 32C110 28.1917 109.25 24.4206 107.793 20.9022C106.335 17.3837 104.199 14.1868 101.506 11.4939C98.8132 8.801 95.6163 6.66488 92.0978 5.20749C88.5794 3.75011 84.8083 3 81 3V3Z" fill="#FF9800"/>
<path d="M47 3C43.1917 3 39.4206 3.75011 35.9022 5.20749C32.3837 6.66488 29.1868 8.801 26.4939 11.4939C23.801 14.1868 21.6649 17.3837 20.2075 20.9022C18.7501 24.4206 18 28.1917 18 32C18 35.8083 18.7501 39.5794 20.2075 43.0978C21.6649 46.6163 23.801 49.8132 26.4939 52.5061C29.1868 55.199 32.3837 57.3351 35.9022 58.7925C39.4206 60.2499 43.1917 61 47 61C50.8083 61 54.5794 60.2499 58.0978 58.7925C61.6163 57.3351 64.8132 55.199 67.5061 52.5061C70.199 49.8132 72.3351 46.6163 73.7925 43.0978C75.2499 39.5794 76 35.8083 76 32C76 28.1917 75.2499 24.4206 73.7925 20.9022C72.3351 17.3837 70.199 14.1868 67.5061 11.4939C64.8132 8.801 61.6163 6.66488 58.0978 5.20749C54.5794 3.75011 50.8083 3 47 3V3Z" fill="#D50000"/>
<path d="M52 32C52 41.9408 56.752 50.7108 64 56C71.248 50.7108 76 41.9408 76 32C76 22.0592 71.248 13.2892 64 8C56.752 13.2892 52 22.0592 52 32Z" fill="#FF3D00"/>
</svg>
