<svg width="128" height="64" viewBox="0 0 128 64" fill="none" xmlns="http://www.w3.org/2000/svg">
<path d="M78.6087 16C70.3235 16 66.087 20.0511 66.087 25.2005C66.087 34.515 76.9391 33.2614 76.9391 38.0481C76.9391 38.8563 76.313 40.7834 71.7635 40.7834C67.2035 40.7834 64.2504 39.0428 64.2504 39.0428L62.8313 45.3422C62.8313 45.3422 65.7844 47 71.4296 47C77.0748 47 84.8696 42.7106 84.8696 36.4733C84.8696 28.9719 74.0174 28.3814 74.0174 25.0348C74.0174 23.3252 75.353 22.0508 79.2765 22.0508C81.8226 22.0508 84.7026 23.9572 84.7026 23.9572L86.0383 17.492C86.0383 17.492 82.2504 16 78.6087 16ZM43.2974 16.5802L36.1183 37.6337C36.1183 37.6337 35.6278 35.8412 35.4504 34.7326C31.3496 25.5943 24.6817 22.2166 24.6817 22.2166L31.0261 46.0882H39.7078L51.7287 16.5802H43.2974ZM54.8174 16.5802L50.1426 46.0882H58.073L62.8313 16.5802H54.8174ZM97.6417 16.5802L84.7026 46.0882H92.5496L94.1357 41.861H103.986L104.821 46.0882H112L105.906 16.5802H97.6417ZM16 16.6631C16 16.6631 31.5061 21.4291 35.1165 32.992L32.4452 19.5642C32.4452 19.5642 31.2974 16.6631 28.1878 16.6631H16ZM100.647 25.1176L102.817 36.2246H96.3061L100.647 25.1176Z" fill="white"/>
</svg>
